<!DOCTYPE svg PUBLIC "-//W3C//DTD SVG 1.1//EN" "http://www.w3.org/Graphics/SVG/1.1/DTD/svg11.dtd">
<!-- Uploaded to: SVG Repo, www.svgrepo.com, Transformed by: SVG Repo Mixer Tools -->
<svg fill="#11766e" version="1.1" id="Capa_1" xmlns="http://www.w3.org/2000/svg" xmlns:xlink="http://www.w3.org/1999/xlink" width="256px" height="256px" viewBox="0 0 450.954 450.954" xml:space="preserve">
<g id="SVGRepo_bgCarrier" stroke-width="0"/>
<g id="SVGRepo_tracerCarrier" stroke-linecap="round" stroke-linejoin="round"/>
<g id="SVGRepo_iconCarrier"> <g> <g> <path d="M51.617,223.95c-0.117-0.726-0.363-1.412-0.419-2.163c-0.576-7.901,2.765-19.261,20.132-30.044l-0.277-3.436 c-0.688-8.731-0.774-19.278,0.861-29.808c-44.217,8.737-71.907,21.188-71.907,35.021C0.007,205.085,19.418,215.681,51.617,223.95z "/> <path d="M363.613,204.674c2.392,1.32,6.749,3.202,13.365,4.172c10.958,1.612,19.073,6.472,24.644,14.482 c30.793-8.186,49.332-18.527,49.332-29.815c0-16.268-38.272-30.628-96.725-39.271c0.325,1.328,0.655,2.607,0.954,4.02 C360.866,185.54,362.893,198.616,363.613,204.674z"/> <path d="M176.502,259.547c-0.411-37.435-57.18-34.14-75.682-35.792c-18.512-1.643-22.62-25.502-22.62-25.502 c-36.607,19.741-16.456,41.535,6.172,49.771c22.617,8.231,47.715-1.645,64.985,11.116c17.275,12.751,14.812,32.072,14.812,32.072 S176.911,296.972,176.502,259.547z"/> <path d="M306.821,225.92c-0.563,12.614,13.01,19.688,21.719,22.917c3.839,1.422,6.997,5.479,6.9,9.567l-0.487,21.394 c-0.086,4.093,2.687,9.13,6.53,10.526c5.23,1.904,13.868,4.22,27.035,5.52c15.95,1.56,25.745-6.169,30.772-12.02 c2.661-3.103,3.687-9.358,3.174-13.421c-0.523-4.067-1.254-10.231-2.285-19.393c-2.463-22.227-11.918-30.036-25.908-32.093 c-13.984-2.054-20.154-7.812-20.154-7.812s0-7.82-8.643-49.366c-8.633-41.541-30.849-39.895-30.849-39.895 C316.276,137.896,307.644,207.409,306.821,225.92z"/> <path d="M265.994,197.06c0.325-3.988-0.853-7.49-3.605-10.682c-10.607-12.283-39.918-14.812-42.611-15.018 c-11.977,1.257-42.343,7.307-42.643,20.604c-0.19,8.516,4.486,18.7,12.212,26.583c7.259,7.424,16.13,11.7,24.332,11.7 c0.467,0,0.932-0.016,1.391-0.036C233.16,229.165,263.821,223.478,265.994,197.06z"/> <path d="M82.816,186.782l1.46,8.452c0.033,0.183,3.659,19.212,17.087,20.406c2.315,0.206,5.324,0.333,8.818,0.482 c17.316,0.734,46.118,1.95,61.644,16.11c2.844-0.021,6.145-0.056,9.897-0.137c-0.023-1.925,0.063-3.921,0.262-5.957l0.183-1.96 c-9.031-9.572-14.213-21.47-13.985-32.088c0.412-18.685,28.929-25.707,43.663-28.109c-3.349-17.768-19.987-35.738-46.735-37.231 c-2.016-0.111-4.015-0.167-5.911-0.167c-24.488,0-30.872,9.435-30.935,9.529c-1.294,2.173-4.471,3.034-6.731,1.691 c-2.346-1.384-3.128-4.417-1.747-6.746c0.878-1.485,9.387-14.333,39.547-14.333c2.046,0,4.164,0.056,6.312,0.175 c31.199,1.745,51.018,22.839,55.672,44.026c5.009-3.532,10.836-8.152,17.372-13.738c8.063-6.911,15.792-16.755,22.617-25.42 c5.61-7.142,10.557-13.439,15.376-17.943c-12.151-9.077-35.551-22.292-68.779-22.292h-0.972 c-50.846,0.386-101.524,28.993-119.322,55.276c-10.562,15.58-10.854,38.347-9.725,52.621L82.816,186.782z"/> <path d="M245.357,153.988c-4.896,4.194-9.43,7.876-13.553,10.981c12.268,2.023,29.203,6.581,37.917,16.686 c4.291,4.951,6.2,10.697,5.688,17.032c-2.006,24.41-22.974,38.993-59.037,41.07c-8.389,0.478-17.072-2.331-24.979-7.906 c0.008,7.14,1.808,15.99,10.072,18.697c4.359,1.432,8.104,1.117,11.393-0.965l3.031-1.914l0.774,3.858l-0.022,0.381 c-0.016,0.274-0.285,7.546,12.451,9.328c5.733,0.803,13.558-0.431,22.912-3.63l0.64-0.224l0.654,0.137 c4.911,1.011,10.142,1.539,15.56,1.539c18.854,0,30.117-8.719,36.47-16.687c-4.266-4.88-6.297-10.425-6.027-16.493 c0.3-6.787,1.584-19.845,3.077-34.975c2.569-26.053,5.764-58.476,4.758-68.185l-0.64-6.233l2.661-0.229 c-4.357-4.613-11.045-10.428-17.189-10.618c-5.758,0-14.03,10.529-22.805,21.693C262.084,136.325,254.081,146.516,245.357,153.988 z M292.72,128.55c7.333,4.171,9.882,13.495,5.713,20.825c0,0-5.002-6.566-12.273-11.415c-7.252-4.85-14.265-3.697-14.265-3.697 C276.064,126.923,285.387,124.371,292.72,128.55z"/> <path d="M229.273,369.424c146.263,0,181.469-36.571,181.469-36.571l30.27-114.077c-7.886,5.586-19.438,10.604-34.408,15.066 c1.417,4.235,2.473,8.912,3.067,14.224c1.01,9.1,1.746,15.214,2.26,19.256c0.741,5.87-0.549,14.609-5.129,19.946 c-8.414,9.775-20.135,15.152-33.027,15.152h-0.011c-1.579,0-3.224-0.076-4.93-0.243c-11.507-1.138-21.287-3.148-29.077-5.982 c-8.028-2.92-12.197-11.761-12.055-18.585l0.314-13.676l-7.82,7.536c-8.018,7.729-22.46,13.548-33.591,13.548H182.561 c-1.303,3.453-2.955,6.251-5.04,8.349c-2.899,2.925-6.604,4.534-10.442,4.534c-2.6,0-4.527-0.741-5.238-1.056l-5.657-2.55 l0.782-6.154c0.016-0.142,0.109-1.335,0.008-3.112h-0.386c-11.149,0-25.573-5.886-33.545-13.686l-13.507-13.218 c-8.612-0.203-17.847-0.924-26.9-4.215c-7.854-2.854-16.036-7.49-22.176-13.559C32.24,234.487,11.969,227.316,0,218.839 l30.208,112.663C30.208,331.502,83.03,369.424,229.273,369.424z M283.254,312.764c6.358,0,11.518,0,11.518,0l3.564-10.958 c1.965-6.053,5.149-6.053,7.119,0c1.965,6.053,3.56,10.958,3.56,10.958h11.522c6.357,0,7.343,3.032,2.193,6.77 s-9.323,6.773-9.323,6.773l3.564,10.953c1.961,6.054-0.619,7.927-5.758,4.189c-5.145-3.737-9.313-6.773-9.313-6.773l-9.318,6.773 c-5.139,3.737-7.718,1.864-5.758-4.189c1.971-6.048,3.564-10.953,3.564-10.953l-9.323-6.773 C275.906,315.796,276.896,312.764,283.254,312.764z M207.082,312.764h11.52c0,0,1.595-4.905,3.562-10.958 c1.96-6.053,5.152-6.053,7.117,0l3.565,10.958c0,0,5.159,0,11.517,0c6.362,0,7.348,3.032,2.198,6.77l-9.323,6.773 c0,0,1.595,4.905,3.565,10.953c1.955,6.054-0.62,7.927-5.764,4.189l-9.313-6.773c0,0-4.172,3.036-9.313,6.773 c-5.144,3.737-7.719,1.864-5.759-4.189l3.562-10.953c0,0-4.172-3.036-9.323-6.773 C199.737,315.796,200.722,312.764,207.082,312.764z M127.348,312.764h11.52c0,0,1.595-4.905,3.562-10.958 c1.958-6.053,5.149-6.053,7.117,0l3.565,10.958c0,0,5.157,0,11.517,0c6.36,0,7.348,3.032,2.196,6.77l-9.321,6.773 c0,0,1.594,4.905,3.562,10.953c1.968,6.054-0.617,7.927-5.761,4.189l-9.313-6.773c0,0-4.172,3.036-9.313,6.773 c-5.144,3.737-7.727,1.864-5.761-4.189l3.565-10.953c0,0-4.172-3.036-9.323-6.773C120,315.796,120.987,312.764,127.348,312.764z"/> </g> </g> </g>
</svg>