<!DOCTYPE svg PUBLIC "-//W3C//DTD SVG 1.1//EN" "http://www.w3.org/Graphics/SVG/1.1/DTD/svg11.dtd">
<!-- Uploaded to: SVG Repo, www.svgrepo.com, Transformed by: SVG Repo Mixer Tools -->
<svg fill="#11766e" version="1.1" id="Capa_1" xmlns="http://www.w3.org/2000/svg" xmlns:xlink="http://www.w3.org/1999/xlink" width="256px" height="256px" viewBox="0 0 468.08 468.08" xml:space="preserve">
<g id="SVGRepo_bgCarrier" stroke-width="0"/>
<g id="SVGRepo_tracerCarrier" stroke-linecap="round" stroke-linejoin="round"/>
<g id="SVGRepo_iconCarrier"> <g> <g> <path d="M234.04,468.08c129.043,0,234.033-104.99,234.033-234.04C468.073,104.995,363.083,0,234.04,0 C104.991,0,0.007,104.986,0.007,234.04C0.007,363.084,104.991,468.08,234.04,468.08z M234.04,40.125 c106.921,0,193.901,86.99,193.901,193.915c0,106.922-86.985,193.913-193.901,193.913c-106.927,0-193.915-86.99-193.915-193.913 C40.134,127.115,127.112,40.125,234.04,40.125z"/> <path d="M234.04,415.258c35.51,0,68.618-10.264,96.588-27.919l-81.936-65.731c-8.074,1.746-17.219,2.185-26.952,1.022 c-33.981-4.051-62.275-26.01-63.171-49.032c-0.905-23.022,25.919-38.398,59.909-34.35c4.865,0.578,9.625,1.54,14.183,2.81 c-2.229-4.187-4.196-8.618-5.817-13.238c-11.329-32.298-2.121-61.822,20.542-65.937c22.673-4.123,50.241,18.741,61.559,51.037 c3.244,9.252,4.798,18.269,4.84,26.532l85.277,68.419c10.356-22.826,16.186-48.136,16.186-74.841 c0-100.083-81.133-181.228-181.226-181.228c-100.083,0-181.227,81.145-181.227,181.228 C52.794,334.112,133.957,415.258,234.04,415.258z"/> </g> </g> </g>
</svg>